PathFileType	4	(X/Y/Z)	pose_F01_0-96.trc
DataRate	CameraRate	NumFrames	NumMarkers	Units	OrigDataRate	OrigDataStartFrame	OrigNumFrames
30	30	11	21	m	30	64	96
Frame#	Time	CHip			RHip			RKnee			RAnkle			RBigToe			RSmallToe			RHeel			LHip			LKnee			LAnkle			LBigToe			LSmallToe			LHeel			Neck			Nose			RShoulder			RElbow			RWrist			LShoulder			LElbow			LWrist			
		X1	Y1	Z1	X2	Y2	Z2	X3	Y3	Z3	X4	Y4	Z4	X5	Y5	Z5	X6	Y6	Z6	X7	Y7	Z7	X8	Y8	Z8	X9	Y9	Z9	X10	Y10	Z10	X11	Y11	Z11	X12	Y12	Z12	X13	Y13	Z13	X14	Y14	Z14	X15	Y15	Z15	X16	Y16	Z16	X17	Y17	Z17	X18	Y18	Z18	X19	Y19	Z19	X20	Y20	Z20	X21	Y21	Z21	
64	2.1333333333333333	-0.9746083081491089	1.7517561527491183	-0.19451634372807058	-0.23708251529074464	1.8499376597101869	-0.8320473934335164																-0.8886587774302878	1.7500726984757222	-0.3311543729900919	-0.23834037633674518	1.6952025607505912	-0.5945133195692163													-0.2091124563030791	1.999418433970834	-0.9568383949206187	-0.18393299830471918	2.0482624308375463	-0.9864292607612285	-0.2276031581233296	2.0070542627565695	-0.8702554527951186	-0.23219212875555317	1.9583192550704955	-0.7596401342974315	-0.2031127187981578	2.0141696489989465	-0.8685562182901331	-0.1892057578126611	1.9912777472061338	-1.0455617162133302	-0.3843608608310052	1.882774972921928	-0.9037504229011646	-0.1479086735315724	1.9311132595080451	-1.1492632483037948
65	2.1666666666666665	-0.9757201573218973	1.747554917032767	-0.19508686851323365	-0.23707415021187053	1.849252924148802	-0.8320142337583141																-0.891826510288811	1.7442163414243432	-0.3307753933070986	-0.23834037633674518	1.6952025607505912	-0.5945133195692163													-0.2106813447283105	1.99650264847809	-0.9625186411902815	-0.17893251208542313	2.0445792457827854	-1.0018532570196161	-0.22473553743872146	2.0047707962730894	-0.880764254669431	-0.2455981448756431	1.9631317039006282	-0.7466793363140705	-0.2226455792276209	2.008999728000974	-0.8184969501641738	-0.1939421022435228	1.9864150750069047	-1.0515099642475358	-0.5739395064279768	1.8393507497183874	-0.7406756072342153	-0.2976394177779962	1.8804618570548493	-1.0258294502609338
66	2.2	-0.9784505548573107	1.7468528809915327	-0.18726747775976235	-0.2370657851329964	1.8485681885874174	-0.8319810740831117																-0.8987001649134452	1.7424290366107011	-0.314549814974441	-0.23834037633674518	1.6952025607505912	-0.5945133195692163													-0.21152981769180912	1.9880142267222312	-0.9758890581685903	-0.17934118200013408	2.0417039243733095	-1.0155217726781571	-0.2224875063651896	2.002935652473794	-0.8938818136766004	-0.2521298317013027	1.9616890878331037	-0.7596001551180442	-0.20486774477315875	2.015757603128178	-0.8213000112168873	-0.18995022803371966	1.9781959162652947	-1.0586658141493954	-0.7635181520249483	1.7959265265148467	-0.5776007915672661	-0.44737016202442	1.8298104546016534	-0.9023956522180725
67	2.2333333333333334	-0.9760888712220396	1.7440469020271183	-0.1869769198236214	-0.23683938992814643	1.8472006502724585	-0.8302262908044916																-0.8859340772756614	1.738375170392627	-0.3288911976232302	-0.23834037633674518	1.6952025607505912	-0.5945133195692163													-0.21075719532363668	1.985419436218101	-0.983787790653655	-0.17964447744736928	2.0388338302128433	-1.028712903302817	-0.22490291608888174	2.0004499311217754	-0.9024807384899871	-0.2553688408404809	1.957302243925414	-0.759893522859754	-0.21487180280908827	1.9987433516720976	-0.8113102573028236	-0.19194346996605696	1.9717579906426628	-1.0665799112468026	-0.7686568250255292	1.7879467623509626	-0.5636570345471472	-0.5971009062708438	1.7791590521484575	-0.7789618541752114
68	2.2666666666666666	-0.9773383650057051	1.743649325042228	-0.18583085072049021	-0.23661299472329647	1.8458331119574993	-0.8284715075258715																-0.8873579408137212	1.7376095810699514	-0.3272924426332129	-0.23834037633674518	1.6952025607505912	-0.5945133195692163													-0.21211100532292834	1.9845717750327612	-0.9893844346428672	-0.17932001790600877	2.0391304546889684	-1.0392138092864083	-0.22731966518774124	1.9990157053500899	-0.9112998576758264	-0.2563838699698653	1.958446391098447	-0.7631556689120853	-0.21407487028679406	2.000536243400266	-0.8084132960654586	-0.1917251601281022	1.9674794893245644	-1.0768928694426145	-0.7737954980261103	1.7799669981870785	-0.5497132775270283	-0.6228710069920078	1.7549079214673793	-0.721467973591747
69	2.3	-0.975476151604778	1.7453958668465572	-0.19109987859680413	-0.23439872359431116	1.8476492495854653	-0.830853635574517																-0.8816450434114812	1.7404347110339897	-0.33638261725482355	-0.23834037633674518	1.6952025607505912	-0.5945133195692163													-0.21293803616797782	1.9835005864092168	-0.99226477310412	-0.1801515379296213	2.0393341948047583	-1.0424569927186402	-0.227317020216165	1.9995067153651636	-0.9113794604765034	-0.25576753291670135	1.9577229520331203	-0.7711927177730713	-0.21640130837512794	2.0032900629796115	-0.7860248637201345	-0.19239072847707053	1.96731835025346	-1.079801004635066	-0.19346557763749567	1.8933225089883596	-1.0698505663934552	-0.6893726337533064	1.7577614718440764	-0.6094087019353974
70	2.3333333333333335	-0.9710943502682029	1.7455129445752477	-0.19974465572078087	-1.0641934411402492	1.751997897791512	-0.04884252143495982																-0.8815031876018955	1.740700710459398	-0.3369557708942922	-0.23834037633674518	1.6952025607505912	-0.5945133195692163													-0.21273949225866395	1.987666984152085	-0.9923722493365028	-0.184765348197167	2.043912011839832	-1.037969244837266	-0.22967322849858424	2.001603245533858	-0.9089076820437184	-0.25574831325102637	1.9578090133433794	-0.7709007104450036	-0.23437590007763412	1.9991358546790563	-0.7562426606967123	-0.18957606416507275	1.9710286540360507	-1.0823317108938721	-0.7822138273888282	1.787807190569151	-0.5382982172587658	-0.7152645514692936	1.759156340414933	-0.5589209524601472
71	2.3666666666666667	-0.9678078048978974	1.7457079859064277	-0.202822627464945	-0.9455843566846407	1.76541427411837	-0.16059630129684285																-0.8819500653136962	1.7401652660661537	-0.3362222437382705	-0.23834037633674518	1.6952025607505912	-0.5945133195692163													-0.21125876956740258	1.9893430498990547	-0.9869252653978545	-0.18814578999050188	2.0496325710272822	-1.0279930416682215	-0.23115443861531157	2.0035372733012258	-0.9039936054055477	-0.2557889352457957	1.9548776740976854	-0.7707206402218042	-0.24058783570402506	1.9867969554868103	-0.7341668827499445	-0.18861642284609534	1.979236112910629	-1.073269600323761	-0.7704196198785549	1.793698060200562	-0.5458497514764117	-0.7463038245238818	1.7633984843464712	-0.5061720431393733
72	2.4	-0.9692055893072405	1.743748054059125	-0.19774273670516304	-0.8269752722290323	1.7788306504452278	-0.2723500811587259																-0.8779829174547029	1.7410667800010413	-0.34002152075989356	-0.23834037633674518	1.6952025607505912	-0.5945133195692163													-0.21125652364577666	1.9967575715332626	-0.9763394285242117	-0.18650897573493483	2.0560758829055237	-1.009884871735448	-0.2296323078557823	2.0047039372572257	-0.8872277741303802	-0.2561740467612888	1.9533447369516634	-0.7707905186227897	-0.24020135133186313	1.9638664339824718	-0.6997139935970237	-0.18765678152711793	1.9874435717852077	-1.0642074897536498	-0.7054805506032847	1.808263785184066	-0.6029599535911343	-0.7621278960167955	1.764781605311758	-0.48501497256557596
73	2.433333333333333	-0.9718944872982607	1.745416368450722	-0.19440435137539505	-0.7083661877734239	1.7922470267720858	-0.3841038610206089																-0.8807779547038666	1.742662713425427	-0.3365584105113616	-0.23834037633674518	1.6952025607505912	-0.5945133195692163													-0.20834764209775988	1.9982727771073698	-0.9649757716977794	-0.18702696381813952	2.0584304945454956	-0.9886305736173824	-0.22943069574496003	2.005791639214466	-0.8760803401023676	-0.2534109132612612	1.9452228074617024	-0.7606572830637743	-1.355426701226325	1.8559471074949938	0.46025923217268433	-0.18695167110753036	1.9895785031915654	-1.061260782333104	-0.6405414813280146	1.8228295101675696	-0.660070155705857	-0.7486742238461047	1.7605309145163266	-0.5103375084957426
74	2.466666666666667	-0.9699092950476592	1.7479961080158266	-0.19758048826736097	-0.5897571033178155	1.8056634030989436	-0.49585764088249196																-0.881553211438207	1.7456775284841608	-0.3379513016802123	-0.23834037633674518	1.6952025607505912	-0.5945133195692163													-0.21151927739899098	2.0002925035862993	-0.9548653439543965	-0.1872941587469133	2.061173493307088	-0.9776199693424245	-0.23163517035688524	2.005854145075656	-0.8626698426451622	-0.2521555796243918	1.9475277155932589	-0.7577869134457672	-1.3474794978068323	1.8360452859851057	0.4612261303253165	-0.18668664809803076	1.9932571305892195	-1.048051132327397	-0.5756024120527445	1.8373952351510734	-0.7171803578205797	-0.7316880871524784	1.7527657628426594	-0.5355631895149512
